Genre:Comedy | Drama | Romance
Language:English
IMDb:http://www.imdb.com/title/tt0817177/
Source:720p.BluRay.x264-DEPRAViTY

General
Complete name :Flipped.2010.LiMiTED.480p.BRRip.H264.Feel-Free
Format : MPEG-4
Format profile : Base Media / Version 2
Codec ID : mp42
File size : 1.15 GiB
Duration : 1h 29mn
Overall bit rate : 1 841 Kbps
Video #1
Codec ID : avc1
Codec ID/Info : Advanced Video Coding
Duration : 1h 29mn
Bit rate mode : Variable
Bit rate : 1 383 Kbps
Width : 720 pixels
Height : 384 pixels
Display aspect ratio : 1.875
Frame rate mode : Constant
Frame rate : 23.976 fps
Resolution : 24 bits
Colorimetry : 4:2:0
Scan type : Progressive
Bits/(Pixel*Frame) : 0.209
Stream size : 888 MiB (75%)
Audio #2
ID : 2
Format : AAC
Format/Info : Advanced Audio Codec
Format version : Version 4
Format profile : LC
Format settings, SBR : No
Codec ID : 40
Duration : 1h 29mn
Bit rate mode : Constant
Bit rate : 454 Kbps
Nominal bit rate : 480 Kbps
Channel(s) : 6 channels
Channel positions : Front: L C R, Rear: L R, LFE
Sampling rate : 48.0 KHz
Resolution : 16 bits
Stream size : 292 MiB (25%)

Plot:
Two eighth graders start to have feelings for each other despite being total opposites. Based on the novel \"Flipped\" by Wendelin Van Draanen.


screens
 
http://rapidhdd.com/images/276971vlcsnap-2010-11-12-18h34m43s150.png
 
http://www.rapidhdd.com/images/28889vlcsnap-2010-11-12-18h34m47s186.png
 
http://www.rapidhdd.com/images/600575vlcsnap-2010-11-12-18h35m09s144.png
 
http://www.rapidhdd.com/images/149922vlcsnap-2010-11-12-18h35m21s15.png 
http://www.rapidhdd.com/images/327990vlcsnap-2010-11-12-18h36m29s167.png